<?xml version="1.0" encoding="utf-8"?>
<!-- Generator: Adobe Illustrator 18.1.1, SVG Export Plug-In . SVG Version: 6.00 Build 0)  -->
<svg version="1.1" id="Layer_1" xmlns="http://www.w3.org/2000/svg" xmlns:xlink="http://www.w3.org/1999/xlink" x="0px" y="0px"
	 width="100.1px" height="100px" viewBox="-431 649 100.1 100" style="enable-background:new -431 649 100.1 100;"
	 xml:space="preserve">
<style type="text/css">
	.st0{fill:#512200;stroke:#512200;stroke-miterlimit:10;}
</style>
<g>
	<path class="st0" d="M-348.9,691.9c1.1,4,1.6,8.3,1.6,12.8c0,0.5,0,1,0,1.5l5.2,2l4.3-3.6l3.3,3.9l-6.5,5.4l-6.8-2.7
		c-0.8,6-2.6,11.5-5.2,16.4l0.9-1.3l5.1,2.9l4.8-2.9l2.7,4.4l-7.2,4.4l-8-4.7c-6.2,9.7-15.9,15.9-26.7,15.9
		c-10.8,0-20.4-6.2-26.7-15.8l-7.8,4.6l-7.2-4.4l2.7-4.4l4.8,2.9l5.1-2.9l0.4,0.5c-2.4-4.6-4.1-9.9-4.8-15.5l-6.6,2.6l-6.5-5.4
		l3.3-3.9l4.3,3.6l5-2c0-0.5,0-1.1,0-1.6c0-4.5,0.6-8.8,1.6-12.8l-8.5-0.3l-3.7-7.5l4.6-2.2l2.5,5l5.9,0.3l0.1,1.7
		c3.5-10.4,10.4-18.7,19-22.8c0.2-3.2,2.8-5.7,6.1-5.7h14.2c3.4,0,6.1,2.7,6.1,6c0,0.1,0,0.3,0,0.4c8.1,4.4,14.5,12.6,17.7,22.7
		l0.1-2.3l5.9-0.3l2.5-5l4.6,2.2l-3.7,7.5L-348.9,691.9z"/>
	<polygon class="st0" points="-364.1,654.9 -364.8,656.7 -365.8,657.2 -368,657.8 -369.8,658.9 -372.3,660.3 -372.3,658.9 
		-369.5,656.8 -367.4,656.2 -365.5,654.9 -364.4,652.8 -362.4,652.1 -363,654.1 	"/>
	<polygon class="st0" points="-393.2,657.8 -395.4,657.2 -396.4,656.7 -397.1,654.9 -398.2,654.1 -398.8,652.1 -396.7,652.8 
		-395.7,654.9 -393.8,656.2 -391.7,656.8 -388.8,658.9 -388.8,660.3 -391.4,658.9 	"/>
</g>
</svg>
