<svg xmlns="http://www.w3.org/2000/svg" width="100.1" height="100" viewBox="-431 649 100.1 100" enable-background="new -431 649 100.1 100"><style type="text/css">.st0{fill:#512200;stroke:#512200;stroke-miterlimit:10;}</style><path class="st0" d="M-348.9 691.9c1.1 4 1.6 8.3 1.6 12.8v1.5l5.2 2 4.3-3.6 3.3 3.9-6.5 5.4-6.8-2.7c-.8 6-2.6 11.5-5.2 16.4l.9-1.3 5.1 2.9 4.8-2.9 2.7 4.4-7.2 4.4-8-4.7c-6.2 9.7-15.9 15.9-26.7 15.9-10.8 0-20.4-6.2-26.7-15.8l-7.8 4.6-7.2-4.4 2.7-4.4 4.8 2.9 5.1-2.9.4.5c-2.4-4.6-4.1-9.9-4.8-15.5l-6.6 2.6-6.5-5.4 3.3-3.9 4.3 3.6 5-2v-1.6c0-4.5.6-8.8 1.6-12.8l-8.5-.3-3.7-7.5 4.6-2.2 2.5 5 5.9.3.1 1.7c3.5-10.4 10.4-18.7 19-22.8.2-3.2 2.8-5.7 6.1-5.7h14.2c3.4 0 6.1 2.7 6.1 6v.4c8.1 4.4 14.5 12.6 17.7 22.7l.1-2.3 5.9-.3 2.5-5 4.6 2.2-3.7 7.5-8.5.4zm-15.2-37l-.7 1.8-1 .5-2.2.6-1.8 1.1-2.5 1.4v-1.4l2.8-2.1 2.1-.6 1.9-1.3 1.1-2.1 2-.7-.6 2zm-29.1 2.9l-2.2-.6-1-.5-.7-1.8-1.1-.8-.6-2 2.1.7 1 2.1 1.9 1.3 2.1.6 2.9 2.1v1.4l-2.6-1.4z"/></svg>